# Blender v2.82 (sub 7) OBJ File: ''
# www.blender.org
mtllib golfBall.mtl
o ball_ico_low
v 0.000000 -0.000857 0.000000
v 0.009296 0.002407 0.006754
v -0.003551 0.002407 0.010929
v 0.015816 0.011225 0.011491
v 0.018593 0.009509 0.000000
v -0.011491 0.002407 0.000000
v -0.003551 0.002407 -0.010929
v 0.009296 0.002407 -0.006754
v 0.020788 0.021000 0.006754
v -0.006041 0.011225 0.018593
v 0.005746 0.009509 0.017683
v 0.000000 0.021000 0.021857
v -0.019550 0.011225 0.000000
v -0.015042 0.009509 0.010929
v -0.020788 0.021000 0.006754
v -0.006041 0.011225 -0.018593
v -0.015042 0.009509 -0.010929
v -0.012847 0.021000 -0.017683
v 0.015816 0.011225 -0.011491
v 0.005746 0.009509 -0.017683
v 0.012847 0.021000 -0.017683
v 0.012847 0.021000 0.017683
v -0.012847 0.021000 0.017683
v -0.020788 0.021000 -0.006754
v 0.000000 0.021000 -0.021857
v 0.020788 0.021000 -0.006754
v 0.006041 0.030775 0.018593
v 0.015042 0.032491 0.010929
v 0.003551 0.039593 0.010929
v -0.015816 0.030775 0.011491
v -0.005746 0.032491 0.017683
v -0.009296 0.039593 0.006754
v -0.015816 0.030775 -0.011491
v -0.018593 0.032491 0.000000
v -0.009296 0.039593 -0.006754
v 0.006041 0.030775 -0.018593
v -0.005746 0.032491 -0.017683
v 0.003551 0.039593 -0.010929
v 0.019550 0.030775 0.000000
v 0.015042 0.032491 -0.010929
v 0.011491 0.039593 0.000000
v 0.000000 0.042857 0.000000
vt 0.499974 0.848435
vt 0.309987 0.543079
vt 0.689996 0.543101
vt 0.859448 0.225884
vt 0.689996 0.543101
vt 0.500010 0.213988
vt 0.309987 0.543079
vt 0.689996 0.543101
vt 0.309987 0.543079
vt 0.689996 0.543101
vt 0.309987 0.543079
vt 0.689996 0.543101
vt 0.140574 0.225844
vt 0.309987 0.543079
vt 0.140574 0.225844
vt 0.500010 0.213988
vt 0.309987 0.543079
vt 0.140574 0.225844
vt 0.500010 0.213988
vt 0.309987 0.543079
vt 0.140574 0.225844
vt 0.500010 0.213988
vt 0.309987 0.543079
vt 0.140574 0.225844
vt 0.500010 0.213988
vt 0.309987 0.543079
vt 0.499974 0.848435
vt 0.689996 0.543101
vt 0.499974 0.848435
vt 0.689996 0.543101
vt 0.499974 0.848435
vt 0.689996 0.543101
vt 0.499974 0.848435
vt 0.689996 0.543101
vt 0.499980 0.848452
vt 0.689996 0.543101
vt 0.140568 0.225850
vt 0.500010 0.213988
vt 0.309987 0.543079
vt 0.140574 0.225844
vt 0.500010 0.213988
vt 0.309987 0.543079
vt 0.140574 0.225844
vt 0.500010 0.213988
vt 0.309987 0.543079
vt 0.140574 0.225844
vt 0.500010 0.213988
vt 0.309987 0.543079
vt 0.140574 0.225844
vt 0.500010 0.213988
vt 0.309987 0.543079
vt 0.689996 0.543101
vt 0.499974 0.848435
vt 0.859453 0.225889
vt 0.689996 0.543101
vt 0.859453 0.225889
vt 0.689996 0.543101
vt 0.859453 0.225889
vt 0.689996 0.543101
vt 0.859453 0.225889
vt 0.689996 0.543101
vt 0.859453 0.225889
vt 0.140574 0.225844
vt 0.499980 0.848452
vt 0.859453 0.225889
vt 0.499974 0.848435
vt 0.859453 0.225889
vt 0.499974 0.848435
vt 0.859453 0.225889
vt 0.499974 0.848435
vt 0.859453 0.225889
vt 0.499974 0.848435
vt 0.859453 0.225889
vt 0.140568 0.225850
vt 0.309987 0.543079
vn 0.0000 -1.0000 -0.0000
vn 0.4253 -0.8507 0.3090
vn -0.1625 -0.8507 0.5000
vn 0.7236 -0.4472 0.5257
vn 0.8506 -0.5258 -0.0000
vn -0.5257 -0.8507 -0.0000
vn -0.1625 -0.8507 -0.5000
vn 0.4253 -0.8507 -0.3090
vn 0.9511 -0.0000 0.3090
vn -0.2764 -0.4472 0.8507
vn 0.2629 -0.5257 0.8090
vn 0.0000 -0.0000 1.0000
vn -0.8944 -0.4472 -0.0000
vn -0.6882 -0.5257 0.5000
vn -0.9511 0.0000 0.3090
vn -0.2764 -0.4472 -0.8507
vn -0.6882 -0.5257 -0.5000
vn -0.5878 0.0000 -0.8090
vn 0.7236 -0.4472 -0.5257
vn 0.2629 -0.5257 -0.8090
vn 0.5878 -0.0000 -0.8090
vn 0.5878 -0.0000 0.8090
vn -0.5878 0.0000 0.8090
vn -0.9511 0.0000 -0.3090
vn -0.0000 0.0000 -1.0000
vn 0.9511 -0.0000 -0.3090
vn 0.2764 0.4472 0.8507
vn 0.6882 0.5257 0.5000
vn 0.1625 0.8507 0.5000
vn -0.7236 0.4472 0.5257
vn -0.2629 0.5257 0.8090
vn -0.4253 0.8507 0.3090
vn -0.7236 0.4472 -0.5257
vn -0.8506 0.5258 0.0000
vn -0.4253 0.8507 -0.3090
vn 0.2764 0.4472 -0.8507
vn -0.2629 0.5257 -0.8090
vn 0.1625 0.8507 -0.5000
vn 0.8944 0.4472 0.0000
vn 0.6882 0.5257 -0.5000
vn 0.5257 0.8507 0.0000
vn -0.0000 1.0000 0.0000
usemtl ball_ico
s 1
f 1/1/1 2/2/2 3/3/3
f 4/4/4 2/5/2 5/6/5
f 1/1/1 3/7/3 6/8/6
f 1/1/1 6/9/6 7/10/7
f 1/1/1 7/11/7 8/12/8
f 4/13/4 5/6/5 9/14/9
f 10/15/10 11/16/11 12/17/12
f 13/18/13 14/19/14 15/20/15
f 16/21/16 17/22/17 18/23/18
f 19/24/19 20/25/20 21/26/21
f 4/27/4 9/14/9 22/28/22
f 10/29/10 12/17/12 23/30/23
f 13/31/13 15/20/15 24/32/24
f 16/33/16 18/23/18 25/34/25
f 19/35/19 21/26/21 26/36/26
f 27/37/27 28/38/28 29/39/29
f 30/40/30 31/41/31 32/42/32
f 33/43/33 34/44/34 35/45/35
f 36/46/36 37/47/37 38/48/38
f 39/49/39 40/50/40 41/51/41
f 41/51/41 38/52/38 42/53/42
f 41/51/41 40/50/40 38/52/38
f 40/50/40 36/54/36 38/52/38
f 38/48/38 35/55/35 42/53/42
f 38/48/38 37/47/37 35/55/35
f 37/47/37 33/56/33 35/55/35
f 35/45/35 32/57/32 42/53/42
f 35/45/35 34/44/34 32/57/32
f 34/44/34 30/58/30 32/57/32
f 32/42/32 29/59/29 42/53/42
f 32/42/32 31/41/31 29/59/29
f 31/41/31 27/60/27 29/59/29
f 29/39/29 41/61/41 42/53/42
f 29/39/29 28/38/28 41/61/41
f 28/38/28 39/62/39 41/61/41
f 26/36/26 40/50/40 39/62/39
f 26/36/26 21/26/21 40/50/40
f 21/26/21 36/46/36 40/50/40
f 25/34/25 37/47/37 36/54/36
f 25/34/25 18/23/18 37/47/37
f 18/23/18 33/43/33 37/47/37
f 24/32/24 34/44/34 33/56/33
f 24/32/24 15/20/15 34/44/34
f 15/20/15 30/40/30 34/44/34
f 23/30/23 31/41/31 30/58/30
f 23/30/23 12/17/12 31/41/31
f 12/17/12 27/63/27 31/41/31
f 22/28/22 28/38/28 27/60/27
f 22/28/22 9/14/9 28/38/28
f 9/14/9 39/49/39 28/38/28
f 21/26/21 25/34/25 36/64/36
f 21/26/21 20/25/20 25/34/25
f 20/25/20 16/65/16 25/34/25
f 18/23/18 24/32/24 33/66/33
f 18/23/18 17/22/17 24/32/24
f 17/22/17 13/67/13 24/32/24
f 15/20/15 23/30/23 30/68/30
f 15/20/15 14/19/14 23/30/23
f 14/19/14 10/69/10 23/30/23
f 12/17/12 22/28/22 27/70/27
f 12/17/12 11/16/11 22/28/22
f 11/16/11 4/71/4 22/28/22
f 9/14/9 26/36/26 39/72/39
f 9/14/9 5/6/5 26/36/26
f 5/6/5 19/73/19 26/36/26
f 8/12/8 20/25/20 19/73/19
f 8/12/8 7/11/7 20/25/20
f 7/11/7 16/21/16 20/25/20
f 7/10/7 17/22/17 16/65/16
f 7/10/7 6/9/6 17/22/17
f 6/9/6 13/18/13 17/22/17
f 6/8/6 14/19/14 13/67/13
f 6/8/6 3/7/3 14/19/14
f 3/7/3 10/74/10 14/19/14
f 5/6/5 8/75/8 19/24/19
f 5/6/5 2/5/2 8/75/8
f 2/5/2 1/1/1 8/75/8
f 3/3/3 11/16/11 10/69/10
f 3/3/3 2/2/2 11/16/11
f 2/2/2 4/13/4 11/16/11
